<svg width="32" height="32" viewBox="0 0 32 32" fill="none" xmlns="http://www.w3.org/2000/svg">
<g id="Frame">
<g id="Group">
<path id="Vector" fill-rule="evenodd" clip-rule="evenodd" d="M27.2 7.60012C27.2 7.17578 27.0314 6.76881 26.7313 6.46875C26.4313 6.16869 26.0243 6.00012 25.6 6.00012H6.39995C5.9756 6.00012 5.56864 6.16869 5.26858 6.46875C4.96852 6.76881 4.79995 7.17578 4.79995 7.60012C4.79995 8.02447 4.96852 8.43143 5.26858 8.73149C5.56864 9.03155 5.9756 9.20012 6.39995 9.20012H25.6C26.0243 9.20012 26.4313 9.03155 26.7313 8.73149C27.0314 8.43143 27.2 8.02447 27.2 7.60012ZM27.2 15.6001C27.2 15.1758 27.0314 14.7688 26.7313 14.4688C26.4313 14.1687 26.0243 14.0001 25.6 14.0001H6.39995C5.9756 14.0001 5.56864 14.1687 5.26858 14.4688C4.96852 14.7688 4.79995 15.1758 4.79995 15.6001C4.79995 16.0245 4.96852 16.4314 5.26858 16.7315C5.56864 17.0316 5.9756 17.2001 6.39995 17.2001H25.6C26.0243 17.2001 26.4313 17.0316 26.7313 16.7315C27.0314 16.4314 27.2 16.0245 27.2 15.6001ZM27.2 23.6001C27.2 23.1758 27.0314 22.7688 26.7313 22.4688C26.4313 22.1687 26.0243 22.0001 25.6 22.0001H16C15.5756 22.0001 15.1686 22.1687 14.8686 22.4688C14.5685 22.7688 14.4 23.1758 14.4 23.6001C14.4 24.0245 14.5685 24.4314 14.8686 24.7315C15.1686 25.0316 15.5756 25.2001 16 25.2001H25.6C26.0243 25.2001 26.4313 25.0316 26.7313 24.7315C27.0314 24.4314 27.2 24.0245 27.2 23.6001Z" fill="#DA3831"/>
</g>
</g>
</svg>
