<svg width="70" height="70" viewBox="0 0 70 70" fill="none" xmlns="http://www.w3.org/2000/svg">
<g id="Frame" clip-path="url(#clip0_53_429)">
<g id="Group">
<path id="Vector" d="M56.875 61.25H7.29167C5.35851 61.2477 3.50519 60.4788 2.13824 59.1118C0.771286 57.7449 0.00231563 55.8915 0 53.9584L0 51.0417C0 45.4125 4.57917 40.8334 10.2083 40.8334H40.3958C40.7826 40.8334 41.1535 40.987 41.427 41.2605C41.7005 41.534 41.8542 41.9049 41.8542 42.2917C41.8542 42.6785 41.7005 43.0494 41.427 43.3229C41.1535 43.5964 40.7826 43.75 40.3958 43.75H10.2083C8.27518 43.7524 6.42186 44.5213 5.0549 45.8883C3.68795 47.2552 2.91898 49.1085 2.91667 51.0417V53.9584C2.91667 56.3705 4.87958 58.3334 7.29167 58.3334H56.875C59.2871 58.3334 61.25 56.3705 61.25 53.9584V51.0417C61.25 49.2159 60.5704 47.4746 59.3338 46.1388C59.2037 45.998 59.1027 45.833 59.0364 45.6532C58.9701 45.4734 58.9399 45.2823 58.9475 45.0908C58.9551 44.8994 59.0003 44.7112 59.0806 44.5372C59.1609 44.3632 59.2747 44.2067 59.4154 44.0767C59.5562 43.9467 59.7212 43.8456 59.901 43.7794C60.0808 43.7131 60.2719 43.6829 60.4634 43.6905C60.6549 43.6981 60.843 43.7433 61.017 43.8236C61.191 43.9038 61.3475 44.0176 61.4775 44.1584C63.21 46.0367 64.1667 48.4809 64.1667 51.0417V53.9584C64.1667 57.9775 60.8942 61.25 56.875 61.25Z" fill="#DA3831"/>
<path id="Vector_2" d="M5.83333 70.0002C2.61625 70.0002 0 67.384 0 64.1669V53.9586C0 53.5718 0.153645 53.2009 0.427136 52.9274C0.700627 52.6539 1.07156 52.5002 1.45833 52.5002C1.84511 52.5002 2.21604 52.6539 2.48953 52.9274C2.76302 53.2009 2.91667 53.5718 2.91667 53.9586V64.1669C2.91667 65.774 4.22625 67.0836 5.83333 67.0836C7.44042 67.0836 8.75 65.774 8.75 64.1669V59.7919C8.75 59.4051 8.90365 59.0342 9.17714 58.7607C9.45063 58.4872 9.82156 58.3336 10.2083 58.3336C10.5951 58.3336 10.966 58.4872 11.2395 58.7607C11.513 59.0342 11.6667 59.4051 11.6667 59.7919V64.1669C11.6667 67.384 9.05042 70.0002 5.83333 70.0002ZM58.3333 70.0002C55.1163 70.0002 52.5 67.384 52.5 64.1669V59.7919C52.5 59.4051 52.6536 59.0342 52.9271 58.7607C53.2006 58.4872 53.5716 58.3336 53.9583 58.3336C54.3451 58.3336 54.716 58.4872 54.9895 58.7607C55.263 59.0342 55.4167 59.4051 55.4167 59.7919V64.1669C55.4167 65.774 56.7262 67.0836 58.3333 67.0836C59.9404 67.0836 61.25 65.774 61.25 64.1669V53.9586C61.25 53.5718 61.4036 53.2009 61.6771 52.9274C61.9506 52.6539 62.3216 52.5002 62.7083 52.5002C63.0951 52.5002 63.466 52.6539 63.7395 52.9274C64.013 53.2009 64.1667 53.5718 64.1667 53.9586V64.1669C64.1667 67.384 61.5504 70.0002 58.3333 70.0002ZM7.29167 43.7502C7.05146 43.7501 6.815 43.6907 6.6033 43.5772C6.39161 43.4637 6.21122 43.2996 6.07818 43.0996C5.94514 42.8996 5.86356 42.6699 5.84069 42.4308C5.81782 42.1916 5.85436 41.9506 5.94708 41.729L11.7512 27.8165C12.3021 26.4899 13.2334 25.3562 14.4278 24.5584C15.6222 23.7606 17.0261 23.3344 18.4625 23.3336H28.35C28.7368 23.3336 29.1077 23.4872 29.3812 23.7607C29.6547 24.0342 29.8083 24.4051 29.8083 24.7919C29.8083 25.1787 29.6547 25.5496 29.3812 25.8231C29.1077 26.0966 28.7368 26.2502 28.35 26.2502H18.4625C16.73 26.2502 15.1171 27.3323 14.4433 28.9423L8.63917 42.8548C8.52708 43.1197 8.33959 43.3459 8.1 43.5051C7.86042 43.6643 7.57932 43.7495 7.29167 43.7502ZM18.9583 52.5002H10.2083C9.82156 52.5002 9.45063 52.3466 9.17714 52.0731C8.90365 51.7996 8.75 51.4287 8.75 51.0419C8.75 50.6551 8.90365 50.2842 9.17714 50.0107C9.45063 49.7372 9.82156 49.5836 10.2083 49.5836H18.9583C19.3451 49.5836 19.716 49.7372 19.9895 50.0107C20.263 50.2842 20.4167 50.6551 20.4167 51.0419C20.4167 51.4287 20.263 51.7996 19.9895 52.0731C19.716 52.3466 19.3451 52.5002 18.9583 52.5002ZM53.9583 52.5002H45.2083C44.8216 52.5002 44.4506 52.3466 44.1771 52.0731C43.9036 51.7996 43.75 51.4287 43.75 51.0419C43.75 50.6551 43.9036 50.2842 44.1771 50.0107C44.4506 49.7372 44.8216 49.5836 45.2083 49.5836H53.9583C54.3451 49.5836 54.716 49.7372 54.9895 50.0107C55.263 50.2842 55.4167 50.6551 55.4167 51.0419C55.4167 51.4287 55.263 51.7996 54.9895 52.0731C54.716 52.3466 54.3451 52.5002 53.9583 52.5002ZM52.5 40.8336C52.3054 40.834 52.1127 40.7943 51.9342 40.7169C51.24 40.4282 35 33.4077 35 19.0636V6.87482C35 6.25066 35.3996 5.69357 35.9917 5.49232L52.0333 0.0760724C52.336 -0.0261713 52.664 -0.0261713 52.9667 0.0760724L69.0083 5.49232C69.6004 5.69357 70 6.25066 70 6.87482V19.0636C70 33.4077 53.76 40.4282 53.0658 40.7198C52.8866 40.7949 52.6943 40.8336 52.5 40.8336ZM37.9167 7.92191V19.0636C37.9167 30.1032 49.7438 36.4411 52.5 37.7711C55.2533 36.4382 67.0833 30.0769 67.0833 19.0636V7.92191L52.5 2.99857L37.9167 7.92191Z" fill="#DA3831"/>
<path id="Vector_3" d="M51.0416 26.25L50.9599 26.2471C50.7551 26.2354 50.555 26.1809 50.3726 26.0869C50.1902 25.9929 50.0296 25.8617 49.9012 25.7017L44.0679 18.41C43.8523 18.1059 43.7612 17.7308 43.8131 17.3617C43.865 16.9925 44.056 16.6572 44.3471 16.4242C44.6381 16.1913 45.0072 16.0784 45.3788 16.1087C45.7503 16.139 46.0963 16.3101 46.3458 16.5871L51.1612 22.6071L60.2174 13.5509C60.4925 13.2852 60.8609 13.1382 61.2432 13.1415C61.6256 13.1449 61.9914 13.2982 62.2618 13.5686C62.5321 13.839 62.6855 14.2048 62.6888 14.5871C62.6922 14.9695 62.5452 15.3379 62.2795 15.6129L52.0712 25.8213C51.9367 25.9576 51.7763 26.0657 51.5996 26.1393C51.4228 26.2129 51.2331 26.2506 51.0416 26.25Z" fill="#DA3831"/>
</g>
</g>
<defs>
<clipPath id="clip0_53_429">
<rect width="70" height="70" fill="white"/>
</clipPath>
</defs>
</svg>
