<svg width="16" height="16" viewBox="0 0 16 16" fill="none" xmlns="http://www.w3.org/2000/svg">
<path d="M10.0221 8.50009L15.6817 2.8451C15.8848 2.64264 15.9991 2.36781 15.9995 2.08105C16 1.7943 15.8865 1.51912 15.684 1.31604C15.4815 1.11297 15.2067 0.998645 14.92 0.998213C14.6332 0.99778 14.358 1.11128 14.1549 1.31374L8.49996 6.99639L2.84498 1.31374C2.64191 1.11067 2.36649 0.996582 2.0793 0.996582C1.79211 0.996582 1.51669 1.11067 1.31362 1.31374C1.11054 1.51681 0.99646 1.79223 0.99646 2.07942C0.99646 2.36661 1.11054 2.64203 1.31362 2.8451L6.99627 8.50009L1.31362 14.1551C1.11116 14.3581 0.997658 14.6333 0.998091 14.9201C0.998523 15.2068 1.11285 15.4817 1.31592 15.6841C1.51899 15.8866 1.79418 16.0001 2.08093 15.9997C2.36768 15.9992 2.64252 15.8849 2.84498 15.6818L8.49996 10.0222L14.1549 15.6818C14.3574 15.8843 14.632 15.998 14.9183 15.998C15.2046 15.998 15.4792 15.8843 15.6817 15.6818C15.8842 15.4794 15.9979 15.2048 15.9979 14.9184C15.9979 14.6321 15.8842 14.3575 15.6817 14.1551L10.0221 8.50009Z" fill="white"/>
</svg>
