<svg width="13" height="19" viewBox="0 0 13 19" fill="none" xmlns="http://www.w3.org/2000/svg">
<path d="M12.0306 3.68409C11.0307 1.93764 9.60047 0.857241 7.76211 0.425593C7.50834 0.366033 7.25048 0.33145 6.99379 0.285339H5.93661C5.9255 0.323125 5.89568 0.317361 5.86995 0.320563C4.87105 0.4251 3.9087 0.786025 3.06096 1.37407C1.64203 2.35947 0.699659 3.73746 0.233831 5.50802C-0.133373 6.89455 -0.0713927 8.24969 0.443161 9.58498C0.81782 10.5534 1.26776 11.4848 1.78802 12.3689C3.1282 14.652 4.70811 16.7238 6.40205 18.7002C6.49268 18.8059 6.53069 18.7642 6.60085 18.6861C7.69016 17.4338 8.71706 16.1182 9.67707 14.7449C10.7535 13.204 11.7522 11.6068 12.4603 9.81682C12.7767 9.01692 13.0129 8.19205 12.9995 7.30762C12.9893 6.02478 12.6539 4.77026 12.0306 3.68409ZM6.47572 10.3567C4.97124 10.324 3.77022 8.98426 3.80706 7.37999C3.84448 5.73666 5.06012 4.42826 6.51549 4.46413C8.02348 4.50127 9.22274 5.83912 9.18474 7.44147C9.1479 9.08737 7.9387 10.3887 6.47806 10.3567H6.47572Z" fill="#DA3831"/>
</svg>
