<svg width="30" height="30" viewBox="0 0 30 30" fill="none" xmlns="http://www.w3.org/2000/svg">
<circle cx="15" cy="15" r="14" stroke="white" stroke-width="2"/>
<path d="M14.152 21V12.392H16.648V21H14.152ZM15.4 11.192C14.9413 11.192 14.568 11.0587 14.28 10.792C13.992 10.5253 13.848 10.1947 13.848 9.8C13.848 9.40533 13.992 9.07467 14.28 8.808C14.568 8.54133 14.9413 8.408 15.4 8.408C15.8587 8.408 16.232 8.536 16.52 8.792C16.808 9.03733 16.952 9.35733 16.952 9.752C16.952 10.168 16.808 10.5147 16.52 10.792C16.2427 11.0587 15.8693 11.192 15.4 11.192Z" fill="white"/>
</svg>
