<svg width="70" height="70" viewBox="0 0 70 70" fill="none" xmlns="http://www.w3.org/2000/svg">
<g id="Frame">
<g id="Group">
<path id="Vector" d="M59.0235 36.9932L51.2895 29.2591M31.9546 56.3281C31.9546 51.3761 33.9217 46.6269 37.4233 43.1253L57.9298 22.6189C60.0655 20.4832 63.5281 20.4832 65.6638 22.6189C67.7995 24.7545 67.7995 28.2172 65.6638 30.3528L45.1572 50.8593C43.4235 52.5932 41.3652 53.9685 39.0998 54.9068C36.8345 55.8452 34.4066 56.3281 31.9546 56.3281Z" stroke="#DA3831" stroke-width="3" stroke-miterlimit="10" stroke-linecap="round" stroke-linejoin="round"/>
<path id="Vector_2" d="M51.9531 59.491V61.7969C51.9531 64.8171 49.5046 67.2656 46.4844 67.2656H8.20312C5.18287 67.2656 2.73438 64.8171 2.73438 61.7969V8.20312C2.73438 5.18287 5.18287 2.73438 8.20312 2.73438H38.7503C39.4685 2.73435 40.1796 2.8758 40.8431 3.15064C41.5066 3.42548 42.1095 3.82832 42.6173 4.33617L50.3513 12.0701C51.0118 12.7305 51.4921 13.549 51.7464 14.4478" stroke="#DA3831" stroke-width="3" stroke-miterlimit="10" stroke-linecap="round" stroke-linejoin="round"/>
<path id="Vector_3" d="M13.6719 19.1406H38.4781M13.6719 30.0781H34.2781M13.6719 41.2781H30.0781" stroke="#DA3831" stroke-width="3" stroke-miterlimit="10" stroke-linecap="round" stroke-linejoin="round"/>
</g>
</g>
</svg>
