<svg version="1.1" xmlns="http://www.w3.org/2000/svg" xmlns:xlink="http://www.w3.org/1999/xlink"
	 viewBox="0 0 512 512" style="enable-background:new 0 0 512 512;">
<style type="text/css">
	.st0{fill:#FFFFFF;}
	.st1{fill:#E30613;}
</style>
<g>
	
		<ellipse transform="matrix(0.7071 -0.7071 0.7071 0.7071 -105.7966 256.1837)" class="st0" cx="256.3" cy="255.8" rx="165.8" ry="165.8"/>
	<path class="st1" d="M256.3,87.8c-92.8,0-168,75.2-168,168s75.2,168,168,168c92.8,0,168-75.2,168-168S349.1,87.8,256.3,87.8z
		 M256.3,405.9c-82.8,0-150.1-67.3-150.1-150.1c0-82.8,67.3-150.1,150.1-150.1c82.8,0,150.1,67.3,150.1,150.1
		C406.4,338.6,339.1,405.9,256.3,405.9z"/>
	<path class="st1" d="M256.3,128.1c-70.5,0-127.7,57.2-127.7,127.7c0,70.5,57.2,127.7,127.7,127.7S384,326.3,384,255.8
		C384,185.3,326.9,128.1,256.3,128.1z M256.3,365.6c-60.5,0-109.8-49.2-109.8-109.8S195.8,146,256.3,146s109.8,49.2,109.8,109.8
		S316.9,365.6,256.3,365.6z"/>
	<path class="st1" d="M256.3,168.4c-48.3,0-87.4,39.1-87.4,87.4c0,48.3,39.1,87.4,87.4,87.4c48.3,0,87.4-39.1,87.4-87.4
		C343.7,207.5,304.6,168.4,256.3,168.4z M256.3,325.3c-38.3,0-69.5-31.2-69.5-69.5c0-38.3,31.2-69.5,69.5-69.5
		c38.3,0,69.5,31.2,69.5,69.5C325.8,294.1,294.6,325.3,256.3,325.3z"/>
	<g>
		<path d="M75.1,323.6l7.1,16.6l9-0.1l3.6,8.5l-42.5-0.6l-3.5-8.2l28.9-31.3l3.7,8.7L75.1,323.6z M69.9,328.9l-11.2,11.5l16.1-0.2
			L69.9,328.9z"/>
		<path d="M54.9,275.9c1.3-1.5,3.2-2.5,5.4-2.9c3.4-0.6,6.3,0.2,8.6,2.4c2.4,2.2,4,5.7,4.8,10.5l3.4,18.8L39,311.6l-3.2-17.8
			c-0.8-4.4-0.6-8.1,0.7-10.8c1.3-2.8,3.5-4.5,6.6-5c1.9-0.3,3.6-0.2,5.3,0.5c1.6,0.7,3,1.8,4.1,3.4
			C52.8,279.4,53.6,277.4,54.9,275.9z M53.3,300l-1.5-8.2c-0.4-1.9-1-3.3-2-4.2c-1-0.8-2.2-1.1-3.7-0.8c-1.5,0.3-2.5,1-3.2,2.1
			c-0.6,1.1-0.8,2.7-0.4,4.6l1.5,8.2L53.3,300z M61.3,282c-3.2,0.6-4.4,2.9-3.6,7.1l1.8,9.7l9.7-1.8l-1.8-9.7
			C66.6,283.2,64.5,281.4,61.3,282z"/>
		<path d="M40.2,235L40,247.4l31.5,0.6l-0.2,8.9l-31.5-0.6l-0.2,12.4l-7.3-0.1l0.6-33.7L40.2,235z"/>
		<path d="M71.9,223.8c-2.4,2.8-5.3,4.7-8.7,5.8c-3.4,1.1-6.9,1.2-10.6,0.3c-3.7-0.9-6.8-2.5-9.4-5c-2.6-2.5-4.3-5.5-5.3-9
			c-1-3.5-1-7.3-0.1-11.2c0.9-3.9,2.6-7.3,5-10c2.4-2.7,5.3-4.7,8.7-5.8c3.4-1.1,6.9-1.2,10.7-0.4c3.7,0.9,6.8,2.5,9.4,5
			c2.5,2.5,4.3,5.5,5.3,9c1,3.5,1,7.3,0.1,11.2C76,217.7,74.3,221,71.9,223.8z M69.3,205.6c-0.6-2-1.7-3.8-3.3-5.2
			c-1.6-1.5-3.6-2.5-5.9-3c-2.3-0.5-4.5-0.5-6.6,0.1c-2.1,0.6-3.8,1.7-5.3,3.2c-1.4,1.6-2.4,3.5-3,5.7c-0.5,2.2-0.5,4.4,0.1,6.4
			c0.6,2,1.7,3.8,3.3,5.2c1.6,1.5,3.6,2.5,5.9,3c2.3,0.5,4.5,0.5,6.6-0.1c2.1-0.6,3.8-1.7,5.3-3.2c1.4-1.6,2.4-3.5,3-5.7
			C70,209.8,69.9,207.7,69.3,205.6z"/>
		<path d="M99.3,157.1l-20.5-10.9l11.5,19.1l-1.9,3.5l-21.9,1.3l20.1,10.7l-4,7.4l-34.3-18.3l3.5-6.6l28.1-1.5l-14.6-24l3.5-6.6
			l34.3,18.2L99.3,157.1z"/>
		<path d="M111.8,136.8c-3.5,1.2-7,1.4-10.4,0.7c-3.5-0.7-6.6-2.4-9.4-5c-2.8-2.6-4.7-5.6-5.7-9c-1-3.4-1-6.9-0.1-10.5
			c0.9-3.6,2.8-6.8,5.5-9.8c2.7-3,5.8-5,9.3-6.2c3.5-1.2,6.9-1.4,10.4-0.7c3.5,0.7,6.6,2.4,9.4,5c2.8,2.6,4.7,5.6,5.7,9
			c1,3.4,1,6.9,0.1,10.5c-0.9,3.5-2.7,6.8-5.5,9.7C118.4,133.5,115.3,135.6,111.8,136.8z M118.6,119.7c0.5-2.1,0.4-4.1-0.3-6.2
			c-0.7-2.1-1.9-3.9-3.6-5.5c-1.8-1.6-3.7-2.7-5.8-3.2c-2.1-0.5-4.2-0.4-6.2,0.2c-2,0.6-3.8,1.8-5.4,3.5c-1.6,1.7-2.6,3.6-3.1,5.6
			c-0.5,2.1-0.4,4.1,0.3,6.2c0.7,2.1,1.9,3.9,3.6,5.5c1.8,1.6,3.7,2.7,5.8,3.2c2.1,0.5,4.2,0.4,6.2-0.2c2-0.6,3.8-1.8,5.4-3.5
			C117.1,123.7,118.1,121.8,118.6,119.7z"/>
		<path d="M117.6,79.5l25.9-17.6l4,5.9L129,80.4l4.5,6.6l8.9-6.1c3.9-2.6,7.4-3.8,10.5-3.6c3.1,0.2,5.7,1.9,7.8,4.9
			c2.2,3.2,2.8,6.5,1.7,9.8c-1.1,3.3-3.6,6.4-7.8,9.2l-15.2,10.4L117.6,79.5z M150.5,96.1c1.9-1.3,3.1-2.7,3.6-4.1
			c0.5-1.4,0.3-2.9-0.7-4.3c-1.9-2.8-4.8-2.9-8.7-0.2l-7.4,5.1l5.9,8.6L150.5,96.1z"/>
		<path d="M157.9,54l8.3-3.3l9.2,23.6l8-30.3l7.9-3.1L205.5,77l-8.3,3.2L188,56.8L180,87l-7.9,3.1L157.9,54z"/>
		<path d="M242,31.8l5.4,38.5l-8.8,1.2l-4.4-31.2l-13.2,1.9l0.9,8.1c0.6,5.5,0.8,10,0.5,13.5c-0.2,3.5-1,6.2-2.4,8.3
			c-1.4,2-3.5,3.3-6.5,3.7c-1.2,0.2-2.7,0.2-4.5,0l-0.5-7.6c0.5,0.1,1,0.1,1.6,0c2.1-0.3,3.4-1.8,3.9-4.4c0.5-2.6,0.5-6.6-0.1-12
			L212.5,36L242,31.8z"/>
		<path d="M286.5,49.6c2.4,2.3,3.4,5.5,3.1,9.6c-0.3,4.4-2,7.6-4.9,9.7c-3,2.1-7,3-12,2.6l-17.5-1.3l2.9-38.7l8.9,0.7L266,44.9
			l9.8,0.7C280.6,46,284.1,47.3,286.5,49.6z M278.2,63.6c1.4-1,2.2-2.7,2.3-4.8c0.3-4-2-6.2-7-6.6l-8.1-0.6l-0.9,12.7l8.1,0.6
			C274.9,65.1,276.8,64.6,278.2,63.6z"/>
		<path d="M338.2,46.7L327,83.9l-8.6-2.6l4.6-15.2L306.1,61l-4.6,15.2l-8.6-2.6l11.2-37.2l8.6,2.6l-4.4,14.7l16.9,5.1l4.4-14.7
			L338.2,46.7z"/>
		<path d="M371.4,82.6c1,3.1,0.5,6.5-1.7,10c-2.3,3.7-5.3,5.8-8.9,6.3c-3.6,0.5-7.5-0.6-11.8-3.3L334,86.3l20.6-32.9l7.6,4.7
			l-6.8,10.8l8.4,5.2C367.8,76.6,370.3,79.4,371.4,82.6z M357.6,91.1c1.7-0.3,3.2-1.3,4.3-3.2c2.1-3.4,1.1-6.4-3.1-9.1l-6.9-4.3
			l-6.8,10.8l6.9,4.3C354,90.9,355.8,91.4,357.6,91.1z M387.2,73.7l7.6,4.7l-20.6,32.9l-7.6-4.7L387.2,73.7z"/>
		<path d="M407.9,90.2l6.1,6.5L395.5,114l31.1-3.7l5.7,6.2L404,143l-6-6.5l18.5-17.2l-31.1,3.6l-5.8-6.2L407.9,90.2z M420.8,88
			l4.2,4.5c-1.9,1.9-1.9,3.9,0.2,6.1c1,1.1,2,1.7,3.1,1.8c1,0.1,2-0.3,3-1.2l4.2,4.5c-2.1,1.9-4.2,2.6-6.5,2.3
			c-2.3-0.3-4.6-1.8-7.1-4.4C417.1,96.4,416.8,91.9,420.8,88z"/>
		<path d="M440.9,197.2l-14.2,6.4l-3.4-7.5l7.5-3.4l-13.3-29.6l35.4-15.9l3.7,8.1l-28.7,12.9l7.1,15.8l28.7-12.9l3.7,8.1l-28.7,12.9
			L440.9,197.2z"/>
		<path d="M447.8,232.7l-7.1,1.5l-6.1-29.5l38-7.8l5.9,28.7l-7.1,1.5l-4.1-20l-8.3,1.7l3.6,17.7l-6.8,1.4l-3.6-17.7l-8.8,1.8
			L447.8,232.7z"/>
		<path d="M479.8,276.2l-38.8-0.6l0.1-9l15.9,0.3l0.3-17.6l-15.9-0.3l0.1-9l38.8,0.6l-0.1,9l-15.3-0.2l-0.3,17.6l15.3,0.2
			L479.8,276.2z"/>
		<path d="M464,319.3l2.7-12.1l-30.8-6.8l1.9-8.7l30.8,6.8l2.7-12.1l7.1,1.6l-7.3,32.9L464,319.3z"/>
		<path d="M455.3,355c-2.1,1.9-4.3,3-6.8,3.4c-2.5,0.4-5,0-7.7-1.1c-2.6-1.1-4.6-2.8-6-4.9c-1.4-2.1-2.1-4.6-2.1-7.3
			c0-2.8,0.7-5.7,2.1-8.9l3.2-7.2l-9.8-4.3l3.6-8.2l35.5,15.7l-6.8,15.4C459.1,350.6,457.4,353.1,455.3,355z M440.8,344.9
			c0.5,1.8,1.7,3.1,3.7,3.9c2,0.9,3.8,0.9,5.4,0.1c1.6-0.8,3-2.5,4.1-4.9l3-6.7l-12.3-5.4l-3,6.7
			C440.6,341.1,440.3,343.2,440.8,344.9z"/>
	</g>
	<g>
		<path class="st1" d="M145.8,403.2l-27.4,29.9l-8.4-7.7l21.3-23.2l-11.4-10.4L98.7,415l-8.3-7.6l27.4-29.9L145.8,403.2z"/>
		<path class="st1" d="M141.4,445.9c-2.2-3.2-3.4-6.7-3.6-10.4c-0.2-3.7,0.6-7.4,2.5-10.9c1.9-3.5,4.5-6.3,7.7-8.2
			c3.2-1.9,6.8-2.9,10.6-2.9c3.9,0,7.7,1,11.5,3c3.8,2,6.8,4.6,8.9,7.8c2.2,3.2,3.4,6.7,3.6,10.4c0.2,3.7-0.6,7.4-2.5,10.9
			c-1.9,3.5-4.5,6.3-7.7,8.2c-3.2,1.9-6.8,2.9-10.6,2.9c-3.9,0-7.7-1-11.5-3C146.5,451.7,143.5,449.1,141.4,445.9z M160.4,446.7
			c1.9-0.1,3.7-0.7,5.4-1.8c1.7-1.1,3.1-2.6,4.1-4.7c1.1-2,1.6-4,1.6-6c0-2-0.5-3.8-1.6-5.5c-1-1.6-2.4-2.9-4.2-3.9
			c-1.8-1-3.7-1.4-5.6-1.3c-1.9,0.1-3.7,0.7-5.4,1.8c-1.7,1.1-3.1,2.7-4.1,4.7c-1.1,2-1.6,4-1.6,6c0,2,0.5,3.8,1.6,5.5
			c1,1.6,2.4,2.9,4.2,3.9C156.6,446.3,158.4,446.7,160.4,446.7z"/>
		<path class="st1" d="M231.1,438l-9.6,39.4l-11-2.7l7.4-30.6l-11.3-2.7l-1.8,6.4c-1.6,5.6-3.1,10.1-4.7,13.4
			c-1.6,3.4-3.5,5.8-5.7,7.3c-2.2,1.5-5,1.9-8.2,1.1c-1.5-0.4-3.1-1-4.9-1.9l2.8-9c0.5,0.2,1,0.4,1.5,0.5c1.5,0.4,2.7,0,3.8-0.9
			c1.1-1,2-2.5,2.9-4.5c0.8-2,1.7-4.7,2.6-8l4.4-15.6L231.1,438z"/>
		<path class="st1" d="M238.8,439l11.3-0.2l0.4,23.8l16.4-24.1l10.8-0.2l0.7,40.6l-11.3,0.2l-0.4-23.8l-16.3,24l-10.8,0.2L238.8,439
			z"/>
		<path class="st1" d="M331.6,466.8l-6-20.6l-5.1,19.7l-4.9,1.4l-14.8-13.5l5.9,20.2l-10.1,2.9l-11.3-39l9.1-2.6l20.2,18.5l6.8-26.4
			l9.1-2.6l11.4,38.9L331.6,466.8z"/>
		<path class="st1" d="M381.3,431.5l4.5,7.6l-28,16.6l-20.7-34.9l27.4-16.2l4.5,7.6l-17.6,10.4l3.5,5.9l15.5-9.2l4.4,7.4l-15.5,9.2
			l3.8,6.4L381.3,431.5z"/>
		<path class="st1" d="M392,382.4c2.8-1,5.5-1.1,8.1-0.5c2.6,0.6,5,2.1,7.1,4.3c2.1,2.2,3.4,4.7,3.8,7.3c0.5,2.6,0.1,5.3-1,8.1
			c-1.1,2.7-3,5.4-5.7,7.9l-5.2,4.8l7.3,7.7l-8.4,7.9l-27.8-29.6l13.5-12.7C386.5,385.1,389.2,383.3,392,382.4z M400.5,398.6
			c0.2-1.6-0.4-3-1.7-4.4c-1.3-1.4-2.7-2-4.3-2c-1.6,0.1-3.2,0.9-5,2.5l-4.6,4.4l8.1,8.7l4.6-4.4
			C399.3,401.7,400.3,400.1,400.5,398.6z"/>
	</g>
	<g>
		<polygon class="st1" points="86,360.7 89.4,368.8 98.2,369.5 91.5,375.3 93.5,383.9 86,379.4 78.4,383.9 80.4,375.3 73.7,369.5 
			82.5,368.8 		"/>
		<polygon class="st1" points="426.7,360.7 430.2,368.8 439,369.5 432.3,375.3 434.3,383.9 426.7,379.4 419.2,383.9 421.2,375.3 
			414.5,369.5 423.3,368.8 		"/>
	</g>
	<polygon class="st0" points="256.3,105.7 297.2,199.6 399.1,209.4 322.4,277.3 344.6,377.2 256.3,325.3 168.1,377.2 190.3,277.3 
		113.6,209.4 215.5,199.6 	"/>
</g>
</svg>
