<svg width="100" height="100" viewBox="0 0 100 100" fill="none" xmlns="http://www.w3.org/2000/svg">
<g id="Frame 97">
<g id="Group">
<path id="Vector" d="M84.9062 58.0289C89.3636 38.6999 77.3077 19.4172 57.9786 14.9599C38.6496 10.5025 19.3669 22.5584 14.9096 41.8874C10.4523 61.2165 22.5081 80.4991 41.8372 84.9565C61.1662 89.4138 80.4489 77.3579 84.9062 58.0289Z" fill="#1F1C1C"/>
<path id="Vector_2" d="M49.9109 13.5547C29.8082 13.5547 13.5068 29.8561 13.5068 49.9588C13.5068 70.0615 29.8082 86.3629 49.9109 86.3629C70.0137 86.3629 86.3151 70.0615 86.3151 49.9588C86.3151 29.8561 70.0137 13.5547 49.9109 13.5547ZM49.9109 82.4793C31.9794 82.4793 17.3904 67.8903 17.3904 49.9588C17.3904 32.0273 31.9794 17.4382 49.9109 17.4382C67.8425 17.4382 82.4315 32.0273 82.4315 49.9588C82.4315 67.8903 67.8425 82.4793 49.9109 82.4793Z" fill="#E30613"/>
<path id="Vector_3" d="M49.9115 22.2944C34.6306 22.2944 22.2471 34.678 22.2471 49.9588C22.2471 65.2396 34.6306 77.6232 49.9115 77.6232C65.1923 77.6232 77.5758 65.2396 77.5758 49.9588C77.5758 34.678 65.1923 22.2944 49.9115 22.2944ZM49.9115 73.7396C36.795 73.7396 26.1306 63.0684 26.1306 49.9588C26.1306 36.8492 36.8019 26.178 49.9115 26.178C63.0279 26.178 73.6923 36.8492 73.6923 49.9588C73.6923 63.0684 63.021 73.7396 49.9115 73.7396Z" fill="#E30613"/>
<path id="Vector_4" d="M49.911 31.0273C39.4589 31.0273 30.9795 39.4999 30.9795 49.9588C30.9795 60.4109 39.4521 68.8904 49.911 68.8904C60.3631 68.8904 68.8425 60.4178 68.8425 49.9588C68.8357 39.5068 60.3631 31.0273 49.911 31.0273ZM49.911 65.0068C41.6165 65.0068 34.8631 58.2602 34.8631 49.9588C34.8631 41.6643 41.6165 34.9109 49.911 34.9109C58.2055 34.9109 64.9589 41.6643 64.9589 49.9588C64.9589 58.2534 58.2055 65.0068 49.911 65.0068Z" fill="#E30613"/>
<g id="Group_2">
<path id="Vector_5" d="M10.6371 64.6439L12.1782 68.2329L14.1302 68.2055L14.9179 70.0411L5.70559 69.9041L4.94531 68.137L11.1987 61.363L12.0001 63.2398L10.6371 64.6439ZM9.52066 65.7945L7.0823 68.2877L10.5686 68.2466L9.52066 65.7945Z" fill="white"/>
<path id="Vector_6" d="M6.26766 54.3082C6.55533 53.9795 6.95259 53.7672 7.44574 53.6781C8.17862 53.5411 8.8019 53.7192 9.3156 54.1987C9.8293 54.6781 10.1786 55.4384 10.3635 56.4726L11.1033 60.5548L2.82245 62.0617L2.12382 58.2055C1.94574 57.2466 2.00054 56.4589 2.26766 55.8562C2.54163 55.2535 3.02108 54.8904 3.70601 54.7672C4.11697 54.6918 4.49369 54.7329 4.843 54.8767C5.19232 55.0274 5.49369 55.2672 5.74026 55.6028C5.80191 55.0685 5.97999 54.637 6.26766 54.3082ZM5.91149 59.5274L5.58958 57.7398C5.51423 57.3219 5.3704 57.0206 5.16492 56.8425C4.95944 56.6576 4.68547 56.6028 4.3567 56.6576C4.03478 56.7192 3.8019 56.8699 3.67177 57.1165C3.53478 57.363 3.50738 57.6918 3.58273 58.1028L3.90464 59.8904L5.91149 59.5274ZM7.64437 55.6439C6.95944 55.7672 6.69916 56.2809 6.8567 57.1781L7.24026 59.2809L9.33615 58.8973L8.95259 56.7945C8.79506 55.8973 8.3567 55.5137 7.64437 55.6439Z" fill="white"/>
<path id="Vector_7" d="M3.08929 45.4451L3.04135 48.1369L9.87012 48.2602L9.83587 50.1849L3.0071 50.0616L2.95916 52.7397L1.37012 52.7054L1.50025 45.4109L3.08929 45.4451Z" fill="white"/>
<path id="Vector_8" d="M9.94536 43.0205C9.41796 43.6164 8.78782 44.0342 8.05494 44.2739C7.32207 44.5068 6.55495 44.5342 5.74673 44.3493C4.94536 44.1643 4.26042 43.8013 3.71248 43.2602C3.15768 42.726 2.78097 42.0684 2.56864 41.3013C2.36317 40.5342 2.35632 39.726 2.55495 38.8698C2.75358 38.0205 3.11659 37.2945 3.63714 36.7054C4.16454 36.1095 4.79467 35.6986 5.52755 35.4589C6.26043 35.2191 7.0344 35.1917 7.83577 35.3835C8.63714 35.5684 9.31522 35.9315 9.87001 36.4726C10.4248 37.0137 10.8015 37.6643 11.0139 38.4315C11.2193 39.1986 11.2262 40 11.0275 40.8561C10.8289 41.6986 10.4728 42.4246 9.94536 43.0205ZM9.39056 39.089C9.26042 38.6438 9.0207 38.2671 8.67138 37.952C8.32892 37.6369 7.89741 37.4178 7.39056 37.3013C6.88371 37.1849 6.40426 37.1917 5.95906 37.3219C5.507 37.452 5.13029 37.6849 4.81522 38.0205C4.50015 38.3561 4.28782 38.7671 4.17823 39.2534C4.06864 39.7397 4.07549 40.1986 4.20563 40.6438C4.33577 41.089 4.57549 41.4657 4.92481 41.7808C5.27412 42.0958 5.69878 42.315 6.20563 42.4315C6.71248 42.5479 7.19193 42.541 7.64399 42.4178C8.09604 42.2876 8.47275 42.0548 8.78782 41.7191C9.10289 41.3835 9.31522 40.9726 9.42481 40.4863C9.52755 39.9931 9.5207 39.5274 9.39056 39.089Z" fill="white"/>
<path id="Vector_9" d="M15.8907 28.5822L11.4386 26.226L13.9386 30.363L13.5345 31.1301L8.79479 31.4109L13.1578 33.7328L12.3016 35.3424L4.86328 31.3835L5.62356 29.9589L11.7194 29.6369L8.56191 24.4452L9.31534 23.0205L16.7468 26.9657L15.8907 28.5822Z" fill="white"/>
<path id="Vector_10" d="M18.6028 24.178C17.8494 24.4383 17.096 24.4862 16.3426 24.3287C15.5891 24.1711 14.911 23.8081 14.3015 23.2465C13.6987 22.6848 13.2878 22.0342 13.0686 21.2944C12.8563 20.5547 12.8426 19.8013 13.048 19.0273C13.2467 18.2602 13.6439 17.5547 14.2398 16.9109C14.8357 16.267 15.5069 15.8218 16.2535 15.5684C17.0069 15.315 17.7604 15.2602 18.5138 15.4177C19.2672 15.5753 19.9521 15.9314 20.5549 16.4931C21.1576 17.0547 21.5686 17.7054 21.7809 18.452C21.9932 19.1917 22.0001 19.952 21.8015 20.7191C21.6028 21.4862 21.2056 22.1917 20.6165 22.8287C20.0275 23.4725 19.3563 23.9177 18.6028 24.178ZM20.0686 20.4794C20.1713 20.0273 20.1576 19.5821 20.0069 19.1369C19.8631 18.6917 19.6028 18.2944 19.2193 17.9383C18.8357 17.5821 18.4179 17.3492 17.9658 17.2396C17.5138 17.13 17.0617 17.1437 16.6234 17.2807C16.185 17.4177 15.7946 17.6711 15.459 18.0342C15.1234 18.3972 14.8973 18.8081 14.7946 19.2533C14.6919 19.7054 14.7124 20.1506 14.8563 20.5958C15.0001 21.041 15.2604 21.4383 15.6439 21.7944C16.0275 22.1506 16.4453 22.3835 16.8973 22.4931C17.3494 22.6026 17.8015 22.589 18.2398 22.452C18.6782 22.315 19.0686 22.0616 19.4042 21.6985C19.7398 21.3355 19.9658 20.9314 20.0686 20.4794Z" fill="white"/>
<path id="Vector_11" d="M19.8428 11.7741L25.4524 7.95215L26.3222 9.23297L22.3085 11.9658L23.288 13.3974L25.2126 12.0823C26.0551 11.5069 26.8154 11.2467 27.4935 11.3015C28.1715 11.3563 28.74 11.7124 29.1921 12.37C29.6647 13.0686 29.788 13.7741 29.562 14.4932C29.3359 15.2124 28.7743 15.8768 27.877 16.4864L24.5756 18.733L19.8428 11.7741ZM26.9798 15.3494C27.3907 15.0686 27.651 14.7741 27.7606 14.4658C27.8702 14.1576 27.8154 13.8426 27.603 13.5343C27.1852 12.9247 26.5551 12.9111 25.7058 13.4864L24.0962 14.5823L25.3702 16.4521L26.9798 15.3494Z" fill="white"/>
<path id="Vector_12" d="M28.582 6.23991L30.3834 5.53443L32.3834 10.6372L34.1163 4.06868L35.8149 3.4043L38.8902 11.2331L37.1026 11.9385L35.1026 6.8495L33.3629 13.4043L31.6505 14.0755L28.582 6.23991Z" fill="white"/>
<path id="Vector_13" d="M46.8081 1.43164L47.9793 9.76041L46.0752 10.0275L45.1232 3.26726L42.267 3.67137L42.4519 5.41794C42.5752 6.60287 42.6163 7.57547 42.5684 8.33575C42.5204 9.08917 42.3492 9.69191 42.0478 10.1303C41.7464 10.5755 41.2807 10.8357 40.6506 10.9248C40.3903 10.959 40.0684 10.9659 39.678 10.9248L39.5684 9.27411C39.6779 9.29465 39.7944 9.29465 39.9177 9.27411C40.3766 9.21246 40.6642 8.89054 40.767 8.32205C40.8766 7.75356 40.8697 6.88369 40.7533 5.71931L40.3971 2.32205L46.8081 1.43164Z" fill="white"/>
<path id="Vector_14" d="M56.439 5.28768C56.9527 5.78083 57.1788 6.47946 57.1103 7.37672C57.0418 8.32878 56.6856 9.02741 56.0418 9.48631C55.3979 9.93836 54.5349 10.1301 53.439 10.048L49.6514 9.76713L50.2747 1.36987L52.2062 1.51371L52.0007 4.27398L54.1308 4.43152C55.1582 4.50686 55.9253 4.79453 56.439 5.28768ZM54.6445 8.31508C54.9459 8.08905 55.1171 7.73974 55.1514 7.26713C55.213 6.39727 54.713 5.91782 53.6445 5.84247L51.8911 5.71234L51.6856 8.47261L53.439 8.60275C53.939 8.637 54.3431 8.54111 54.6445 8.31508Z" fill="white"/>
<path id="Vector_15" d="M67.651 4.66427L65.2127 12.7191L63.3497 12.1574L64.3496 8.85606L60.6921 7.74647L59.6921 11.0478L57.8291 10.4862L60.2675 2.4314L62.1305 2.99304L61.1716 6.17112L64.8291 7.28071L65.788 4.10263L67.651 4.66427Z" fill="white"/>
<path id="Vector_16" d="M74.8283 12.4247C75.0543 13.1028 74.9242 13.822 74.4516 14.5823C73.9447 15.3905 73.3077 15.8494 72.5269 15.9521C71.7461 16.0549 70.8968 15.8151 69.9653 15.2398L66.7461 13.2261L71.205 6.08911L72.8488 7.11651L71.3831 9.45898L73.1981 10.5891C74.0612 11.1371 74.6091 11.7466 74.8283 12.4247ZM71.8351 14.2672C72.205 14.2056 72.5201 13.9795 72.7666 13.5754C73.2324 12.8357 73.0064 12.1782 72.0954 11.6097L70.6091 10.6782L69.1434 13.0206L70.6297 13.9521C71.0612 14.2261 71.4653 14.3288 71.8351 14.2672ZM78.2598 10.5001L79.9036 11.5275L75.4447 18.6645L73.8009 17.6371L78.2598 10.5001Z" fill="white"/>
<path id="Vector_17" d="M82.7464 14.0891L84.0615 15.5069L80.0478 19.2398L86.7944 18.4453L88.0409 19.7809L81.8834 25.5138L80.5752 24.1028L84.5752 20.3768L77.8355 21.1644L76.582 19.8151L82.7464 14.0891ZM85.5478 13.5959L86.4587 14.5754C86.0409 14.9864 86.0546 15.4316 86.4998 15.9042C86.719 16.137 86.9382 16.2672 87.1642 16.2877C87.3902 16.3083 87.6094 16.2261 87.8218 16.0343L88.7327 17.0138C88.2875 17.4179 87.8218 17.5822 87.3286 17.5138C86.8355 17.4453 86.3286 17.1233 85.8012 16.5549C84.7396 15.4316 84.6642 14.4453 85.5478 13.5959Z" fill="white"/>
<path id="Vector_18" d="M89.8839 37.2602L86.8154 38.6438L86.0825 37.0136L87.7058 36.2807L84.8223 29.8698L92.4935 26.4177L93.288 28.1848L87.062 30.9862L88.6031 34.404L94.8291 31.6027L95.6236 33.3698L89.3976 36.1711L89.8839 37.2602Z" fill="white"/>
<path id="Vector_19" d="M91.3903 44.9522L89.8629 45.2672L88.5479 38.8837L96.7876 37.1851L98.0753 43.4111L96.5479 43.7262L95.6574 39.3905L93.8698 39.7604L94.6574 43.5892L93.1711 43.8974L92.3835 40.0686L90.4794 40.459L91.3903 44.9522Z" fill="white"/>
<path id="Vector_20" d="M98.3221 54.3698L89.9111 54.2328L89.9454 52.2876L93.3906 52.3424L93.4522 48.5205L90.0002 48.4657L90.0344 46.5205L98.4454 46.6575L98.4111 48.6027L95.0961 48.5479L95.0344 52.3698L98.3495 52.4246L98.3221 54.3698Z" fill="white"/>
<path id="Vector_21" d="M94.8976 63.7124L95.4798 61.0823L88.8154 59.6028L89.2332 57.7261L95.8976 59.2055L96.4798 56.5891L98.0278 56.9316L96.4456 64.0549L94.8976 63.7124Z" fill="white"/>
<path id="Vector_22" d="M93.0203 71.4453C92.5683 71.8494 92.0751 72.0891 91.5409 72.1782C90.9998 72.2672 90.445 72.185 89.8765 71.9316C89.3148 71.685 88.8765 71.3288 88.5751 70.8699C88.2737 70.411 88.123 69.8836 88.1162 69.2809C88.1162 68.6781 88.26 68.0412 88.5614 67.3562L89.2463 65.8083L87.123 64.8699L87.9107 63.0891L95.6093 66.4864L94.1367 69.822C93.8422 70.5001 93.4724 71.0412 93.0203 71.4453ZM89.8765 69.274C89.9861 69.6576 90.2532 69.9384 90.6778 70.1234C91.1093 70.3151 91.5066 70.322 91.8559 70.1439C92.2121 69.9658 92.5066 69.6097 92.7395 69.0754L93.3833 67.6234L90.7121 66.4453L90.0683 67.8973C89.8285 68.4316 89.7669 68.8905 89.8765 69.274Z" fill="white"/>
</g>
<g id="Group_3">
<path id="Vector_23" d="M25.959 81.8835L20.0207 88.3629L18.2056 86.6985L22.8152 81.6711L20.3563 79.4109L15.7467 84.4383L13.9453 82.7807L19.8837 76.3013L25.959 81.8835Z" fill="#E30613"/>
<path id="Vector_24" d="M25.0001 91.1369C24.5275 90.4383 24.2741 89.6849 24.2262 88.8766C24.1782 88.0616 24.3632 87.2739 24.7673 86.5068C25.1782 85.7397 25.733 85.1506 26.4316 84.7328C27.1303 84.3219 27.8974 84.1095 28.7399 84.1164C29.5755 84.1164 30.4111 84.3356 31.2262 84.7739C32.0481 85.2123 32.6919 85.7739 33.1577 86.4725C33.6234 87.1712 33.8837 87.9246 33.9316 88.7328C33.9796 89.5479 33.7947 90.3355 33.3837 91.1027C32.9727 91.8698 32.4179 92.4588 31.7193 92.8767C31.0207 93.2945 30.2536 93.4999 29.4111 93.4931C28.5686 93.4931 27.7399 93.2739 26.9248 92.8355C26.1097 92.3972 25.4659 91.8355 25.0001 91.1369ZM29.1097 91.3082C29.5275 91.2945 29.9179 91.1643 30.281 90.9314C30.644 90.6917 30.9453 90.3561 31.1714 89.9246C31.4043 89.4862 31.5138 89.0547 31.5138 88.6164C31.507 88.1849 31.3974 87.7876 31.1782 87.4314C30.959 87.0753 30.6508 86.7945 30.2604 86.589C29.87 86.3766 29.4659 86.2808 29.0481 86.3013C28.6303 86.3219 28.2399 86.4451 27.8768 86.678C27.5138 86.9177 27.2125 87.2534 26.9864 87.6917C26.7536 88.1301 26.6371 88.5616 26.644 88.9999C26.6508 89.4314 26.7604 89.8287 26.9796 90.1849C27.1988 90.541 27.507 90.8218 27.8974 91.0273C28.2947 91.226 28.6919 91.3219 29.1097 91.3082Z" fill="#E30613"/>
<path id="Vector_25" d="M44.4449 89.4383L42.3764 97.9794L39.9997 97.4041L41.6024 90.7808L39.1504 90.1849L38.7668 91.5616C38.4312 92.7739 38.0887 93.7397 37.7462 94.4657C37.4038 95.1917 36.986 95.7191 36.5065 96.0479C36.0202 96.3767 35.4312 96.452 34.7325 96.2808C34.4038 96.1986 34.0545 96.0616 33.6709 95.8698L34.2873 93.9246C34.3832 93.9726 34.4928 94.0137 34.6093 94.0411C34.9243 94.1164 35.1983 94.0479 35.4312 93.8424C35.664 93.6301 35.8695 93.3082 36.0545 92.8767C36.2394 92.4452 36.4312 91.8698 36.6298 91.1506L37.575 87.7739L44.4449 89.4383Z" fill="#E30613"/>
<path id="Vector_26" d="M46.1094 89.6575L48.5546 89.6164L48.6368 94.7739L52.1847 89.5548L54.5203 89.5137L54.6642 98.3013L52.219 98.3424L52.1368 93.1918L48.6025 98.3972L46.2532 98.4383L46.1094 89.6575Z" fill="#E30613"/>
<path id="Vector_27" d="M66.212 95.6779L64.9038 91.2053L63.7874 95.4792L62.7257 95.7875L59.5271 92.8697L60.7942 97.2464L58.6024 97.8834L56.1572 89.4382L58.123 88.8697L62.4997 92.8834L63.9791 87.171L65.9449 86.6025L68.4175 95.034L66.212 95.6779Z" fill="#E30613"/>
<path id="Vector_28" d="M76.9796 88.0341L77.9591 89.6848L71.8906 93.2807L67.4111 85.719L73.3426 82.2053L74.3221 83.856L70.507 86.1163L71.2604 87.3902L74.6235 85.3971L75.5687 86.993L72.2125 88.9861L73.0344 90.3697L76.9796 88.0341Z" fill="#E30613"/>
<path id="Vector_29" d="M79.3012 77.3835C79.9108 77.1711 80.493 77.1369 81.0615 77.2807C81.63 77.4177 82.1368 77.7328 82.5889 78.2122C83.0409 78.6917 83.3149 79.2191 83.4176 79.7944C83.5204 80.3698 83.445 80.952 83.1985 81.541C82.9519 82.1369 82.5409 82.7054 81.9587 83.2465L80.8423 84.2944L82.4176 85.9725L80.6026 87.6711L74.582 81.267L77.5135 78.5136C78.1026 77.9657 78.6985 77.589 79.3012 77.3835ZM81.13 80.8835C81.1642 80.541 81.0478 80.2259 80.767 79.9246C80.4861 79.6232 80.1711 79.4862 79.8286 79.4931C79.4861 79.5068 79.1231 79.6848 78.7533 80.0342L77.7464 80.9794L79.5067 82.8561L80.5135 81.9109C80.8903 81.5684 81.0957 81.2259 81.13 80.8835Z" fill="#E30613"/>
</g>
<g id="Group_4">
<path id="Vector_30" d="M12.9935 72.678L13.74 74.4382L15.6441 74.6026L14.1989 75.8492L14.6304 77.7122L12.9935 76.7259L11.3565 77.7122L11.788 75.8492L10.3428 74.6026L12.2469 74.4382L12.9935 72.678Z" fill="#E30613"/>
<path id="Vector_31" d="M86.8225 72.678L87.5691 74.4382L89.4732 74.6026L88.028 75.8492L88.4595 77.7122L86.8225 76.7259L85.1856 77.7122L85.6239 75.8492L84.1787 74.6026L86.0828 74.4382L86.8225 72.678Z" fill="#E30613"/>
</g>
<path id="Vector_32" d="M49.911 17.4385L58.7535 37.7878L80.8357 39.9111L64.2192 54.6097L69.0206 76.2673L49.911 65.007L30.7946 76.2673L35.5959 54.6097L18.9795 39.9111L41.0617 37.7878L49.911 17.4385Z" fill="#1F1C1C"/>
</g>
</g>
</svg>
