<svg width="50" height="52" viewBox="0 0 50 52" fill="none" xmlns="http://www.w3.org/2000/svg">
    <path d="M4.77621 33.6144L5.57048 35.4737H6.57655L6.97898 36.4229L2.23455 36.3521L1.84271 35.4242L5.06568 31.925L5.48223 32.8954L4.77621 33.6144ZM4.20081 34.2094L2.94763 35.4985L4.74444 35.4773L4.20081 34.2094Z" fill="white"/>
    <path d="M2.52407 28.2697C2.68289 28.0941 2.89742 27.9789 3.13124 27.9439C3.30155 27.9056 3.47864 27.9102 3.64677 27.9571C3.8149 28.0041 3.96886 28.092 4.09495 28.2131C4.39251 28.5391 4.58131 28.9501 4.63506 29.3889L5.0163 31.5138L0.751967 32.2753L0.388369 30.292C0.292213 29.8884 0.319272 29.4652 0.46603 29.0772C0.532056 28.9288 0.634835 28.7998 0.764591 28.7025C0.894348 28.6051 1.04677 28.5427 1.20735 28.5212C1.40389 28.4802 1.60823 28.4999 1.79334 28.5779C1.97788 28.6597 2.13746 28.7893 2.25578 28.9533C2.26966 28.7024 2.36373 28.4627 2.52407 28.2697ZM2.3405 30.9684L2.17106 30.0441C2.15061 29.8706 2.07368 29.7088 1.95219 29.5837C1.8954 29.5356 1.82795 29.5018 1.75549 29.4851C1.68302 29.4685 1.60765 29.4695 1.53564 29.4881C1.46193 29.4971 1.39144 29.5236 1.33003 29.5655C1.26863 29.6074 1.21809 29.6634 1.18264 29.7289C1.10912 29.8885 1.0929 30.0687 1.13675 30.2389L1.30266 31.1597L2.3405 30.9684ZM3.23361 28.9604C2.88061 29.0241 2.74646 29.2897 2.83118 29.7537L3.02887 30.8445L4.10554 30.6462L3.90786 29.5589C3.82667 29.0914 3.60074 28.8931 3.23361 28.9604Z" fill="white"/>
    <path d="M0.88605 23.6869L0.86134 25.0787L4.39142 25.1425L4.37377 26.1341L0.843689 26.0704L0.818979 27.4587H0L0.0670715 23.6692L0.88605 23.6869Z" fill="white"/>
    <path d="M4.41958 22.4332C4.16023 22.7349 3.82316 22.9591 3.44528 23.0813C3.0596 23.2032 2.64783 23.2154 2.25564 23.1168C1.85773 23.0324 1.49105 22.8387 1.19661 22.5572C0.914483 22.2794 0.714164 21.9289 0.617682 21.5443C0.513385 21.1329 0.513385 20.7019 0.617682 20.2906C0.707105 19.8747 0.900224 19.4884 1.17896 19.1679C1.44106 18.8648 1.78149 18.6403 2.16271 18.5191C2.54393 18.3978 2.95113 18.3846 3.33937 18.4808C3.73151 18.5659 4.09235 18.7586 4.38159 19.0376C4.67084 19.3165 4.8771 19.6706 4.97733 20.0604C5.08378 20.4702 5.08378 20.9007 4.97733 21.3105C4.88835 21.7258 4.69653 22.1119 4.41958 22.4332ZM4.13364 20.4003C4.0653 20.1744 3.93721 19.9712 3.76298 19.8124C3.57565 19.6449 3.3482 19.529 3.10286 19.476C2.86016 19.4097 2.60424 19.4097 2.36154 19.476C2.13635 19.5375 1.93238 19.66 1.77202 19.8301C1.60695 20.0088 1.49346 20.2292 1.44372 20.4676C1.38119 20.6996 1.38119 20.944 1.44372 21.176C1.50442 21.4011 1.6267 21.6048 1.79673 21.7639C1.9841 21.9442 2.2174 22.0692 2.47097 22.1251C2.71397 22.189 2.96929 22.189 3.21229 22.1251C3.43785 22.0645 3.64204 21.9418 3.80181 21.7709C3.96659 21.5916 4.08108 21.3716 4.13364 21.1335C4.19877 20.8935 4.19877 20.6403 4.13364 20.4003Z" fill="white"/>
    <path d="M7.48381 14.9673L5.18926 13.749L6.47421 15.874L6.26594 16.2706L3.82312 16.4159L6.07178 17.6165L5.62699 18.4629L1.80038 16.4159L2.19222 15.6827L5.334 15.5163L3.70663 12.8282L4.09494 12.0916L7.92508 14.1315L7.48381 14.9673Z" fill="white"/>
    <path d="M8.88161 12.69C8.50396 12.8242 8.09652 12.8502 7.70495 12.7651C7.31339 12.68 6.95319 12.4872 6.66472 12.2083C6.36535 11.941 6.14628 11.5952 6.03216 11.2098C5.91803 10.8243 5.91337 10.4146 6.01871 10.0267C6.13433 9.61915 6.34422 9.24475 6.6313 8.93397C6.91838 8.62318 7.27453 8.38478 7.67079 8.23817C8.04525 8.10858 8.44742 8.08168 8.83572 8.16026C9.13077 8.22065 9.41045 8.34081 9.65762 8.51339C9.90479 8.68597 10.1143 8.90734 10.2732 9.16394C10.4321 9.42055 10.5372 9.707 10.582 10.0058C10.6268 10.3045 10.6104 10.6093 10.5337 10.9015C10.4156 11.3057 10.2047 11.6766 9.91773 11.9841C9.63079 12.2917 9.27589 12.5274 8.88161 12.6723V12.69ZM9.63704 10.7775C9.69265 10.5431 9.68165 10.2977 9.60527 10.0692C9.526 9.83068 9.38607 9.61705 9.19931 9.4494C9.01735 9.27836 8.79507 9.1565 8.55331 9.09524C8.32065 9.03564 8.07597 9.043 7.84729 9.11649C7.61536 9.19067 7.4071 9.32508 7.24365 9.50607C7.07361 9.68203 6.95198 9.89924 6.89064 10.1365C6.83484 10.3709 6.84585 10.6163 6.92241 10.8448C7.00651 11.0822 7.14684 11.2955 7.33132 11.4664C7.5158 11.6372 7.7389 11.7606 7.98144 11.8258C8.21411 11.8852 8.45875 11.8779 8.68745 11.8046C8.91842 11.7262 9.12624 11.5912 9.29206 11.4118C9.45788 11.2325 9.57646 11.0145 9.63704 10.7775Z" fill="white"/>
    <path d="M9.53128 6.27627L12.4259 4.30005L12.8743 4.96233L10.8056 6.37897L11.2963 7.11563L12.2918 6.43564C12.6272 6.17214 13.0414 6.02989 13.4673 6.03189C13.646 6.04766 13.8184 6.10602 13.97 6.20212C14.1217 6.29822 14.2483 6.42928 14.3393 6.58439C14.4563 6.73871 14.5347 6.91898 14.5679 7.11003C14.6011 7.30109 14.588 7.49734 14.5299 7.68228C14.3644 8.11325 14.0583 8.47528 13.6615 8.70935L11.9635 9.871L9.53128 6.27627ZM13.2096 8.12498C13.3873 8.01867 13.5269 7.85878 13.6085 7.66812C13.6355 7.58695 13.6425 7.50044 13.629 7.41597C13.6155 7.33149 13.5818 7.25154 13.5309 7.18292C13.3155 6.86771 12.9908 6.86063 12.553 7.15813L11.7235 7.72478L12.3553 8.6881L13.2096 8.12498Z" fill="white"/>
    <path d="M14.0249 3.41458L14.9533 3.06042L15.9841 5.69892L16.8772 2.30252L17.7562 1.95898L19.3377 6.00704L18.4164 6.3612L17.3856 3.72979L16.4889 7.1191L15.6064 7.47327L14.0249 3.41458Z" fill="white"/>
    <path d="M23.4186 0.928711L24.0222 5.2353L23.0409 5.37697L22.5502 1.8814L21.0781 2.08682L21.1805 2.98993C21.2433 3.4902 21.2646 3.99484 21.2441 4.49865C21.2367 4.82611 21.1442 5.14597 20.9758 5.42655C20.8942 5.54168 20.789 5.63792 20.6672 5.70879C20.5454 5.77966 20.4099 5.82351 20.2698 5.83738C20.1033 5.85728 19.935 5.85728 19.7685 5.83738L19.712 4.98385C19.7716 4.99445 19.8325 4.99445 19.892 4.98385C20.1286 4.95198 20.2768 4.78906 20.3298 4.49157C20.389 4.04611 20.389 3.59475 20.3298 3.1493L20.1462 1.37849L23.4186 0.928711Z" fill="white"/>
    <path d="M28.3819 2.92253C28.5185 3.06398 28.6212 3.23472 28.6824 3.42185C28.7435 3.60898 28.7615 3.8076 28.7349 4.00272C28.7301 4.21426 28.6782 4.42204 28.5829 4.6108C28.4876 4.79957 28.3514 4.96451 28.1842 5.09353C27.7842 5.34353 27.3096 5.44504 26.8428 5.3804L24.8907 5.2352L25.2048 0.896729L26.2003 0.971102L26.0944 2.38775L27.1817 2.47983C27.6213 2.48078 28.0464 2.63758 28.3819 2.92253ZM27.457 4.48792C27.5376 4.42239 27.6027 4.33986 27.6479 4.24621C27.693 4.15256 27.717 4.05008 27.7182 3.94605C27.75 3.49627 27.4923 3.23773 26.9416 3.2094L26.0379 3.13857L25.932 4.55521L26.8357 4.6225C27.0523 4.65627 27.2736 4.60832 27.457 4.48792Z" fill="white"/>
    <path d="M34.1605 2.59988L32.9038 6.76481L31.9436 6.47439L32.4767 4.76734L30.574 4.1936L30.0586 5.90065L29.0984 5.61024L30.3586 1.44531L31.3188 1.73572L30.8211 3.37549L32.7061 3.94569L33.2003 2.31301L34.1605 2.59988Z" fill="white"/>
    <path d="M37.8601 6.61266C37.9148 6.80114 37.9257 6.99968 37.8921 7.19306C37.8584 7.38644 37.7811 7.56952 37.6659 7.72826C37.566 7.9149 37.4245 8.0759 37.2525 8.19875C37.0804 8.3216 36.8825 8.40299 36.674 8.43658C36.206 8.47913 35.7381 8.35362 35.3537 8.08242L33.6911 7.04119L36.0068 3.33667L36.8505 3.86791L36.0986 5.07914L37.0341 5.66705C37.4115 5.87527 37.7038 6.20999 37.8601 6.61266ZM36.3174 7.56535C36.419 7.54548 36.515 7.50345 36.5985 7.44225C36.6821 7.38105 36.7513 7.30217 36.8011 7.21119C37.0376 6.82869 36.9211 6.50287 36.4481 6.19829L35.682 5.71663L34.9478 6.91723L35.7173 7.39889C35.8907 7.52539 36.1039 7.58452 36.3174 7.56535ZM39.6287 5.61746L40.4759 6.14871L38.1813 9.83906L37.3341 9.30782L39.6287 5.61746Z" fill="white"/>
    <path d="M41.941 7.47326L42.6223 8.20283L40.5537 10.1365L44.0308 9.72218L44.6733 10.4305L41.4962 13.3948L40.822 12.6653L42.8835 10.7386L39.4099 11.1459L38.7639 10.4376L41.941 7.47326ZM43.3848 7.21826L43.8543 7.72471C43.8028 7.76584 43.7612 7.81809 43.7327 7.87757C43.7041 7.93704 43.6892 8.00222 43.6892 8.06825C43.6892 8.13427 43.7041 8.19945 43.7327 8.25893C43.7612 8.3184 43.8028 8.37065 43.8543 8.41178C43.9428 8.52016 44.0689 8.591 44.2073 8.61011C44.2721 8.61574 44.3374 8.6069 44.3984 8.58425C44.4595 8.56159 44.5147 8.52568 44.5603 8.47907L45.0298 8.98552C44.937 9.08141 44.8235 9.15461 44.698 9.19944C44.5725 9.24427 44.4385 9.25954 44.3061 9.24406C43.9947 9.17432 43.716 9.0008 43.5154 8.75178C42.9682 8.16741 42.9294 7.65742 43.3848 7.21826Z" fill="white"/>
    <path d="M45.6193 19.4549L44.0378 20.1632L43.6601 19.3132L44.4791 18.959L42.9929 15.6441L46.9466 13.8733L47.3561 14.7835L44.1473 16.232L44.9415 18.0028L48.1504 16.5543L48.5599 17.4645L45.351 18.913L45.6193 19.4549Z" fill="white"/>
    <path d="M46.3958 23.4317L45.6051 23.5946L44.9273 20.2938L49.1634 19.4155L49.827 22.6348L49.0363 22.7978L48.5774 20.5595L47.656 20.7507L48.062 22.7269L47.296 22.8863L46.89 20.9065L45.9086 21.112L46.3958 23.4317Z" fill="white"/>
    <path d="M49.9682 28.3017L45.6333 28.2309V27.2215L47.3983 27.2534L47.4301 25.2772L45.6651 25.2453V24.2395L50 24.3103V25.3161L48.2879 25.2914L48.2561 27.264L49.9682 27.2924V28.3017Z" fill="white"/>
    <path d="M48.2033 33.1254L48.5033 31.7654L45.0685 31.0004L45.2839 30.03L48.7151 30.8021L49.0152 29.4492L49.813 29.6263L48.9975 33.3096L48.2033 33.1254Z" fill="white"/>
    <path d="M47.236 37.1306C47.0236 37.3281 46.7588 37.4597 46.4735 37.5095C46.1809 37.5501 45.8829 37.5046 45.6157 37.3785C45.3445 37.2667 45.1124 37.0769 44.9485 36.8331C44.7882 36.5897 44.7057 36.3031 44.712 36.0114C44.7188 35.6673 44.7969 35.3284 44.9414 35.0162L45.2944 34.2158L44.2001 33.7306L44.6061 32.8098L48.5739 34.5806L47.8149 36.3018C47.6827 36.6162 47.4854 36.8987 47.236 37.1306ZM45.6157 36.0079C45.645 36.1081 45.6974 36.1999 45.7685 36.2762C45.8396 36.3525 45.9275 36.411 46.0252 36.447C46.1205 36.4929 46.2248 36.5167 46.3305 36.5167C46.4362 36.5167 46.5406 36.4929 46.6359 36.447C46.8459 36.3203 47.0066 36.1254 47.0912 35.8946L47.4195 35.1437L46.0428 34.5417L45.7145 35.2925C45.5993 35.5121 45.5643 35.7652 45.6157 36.0079Z" fill="white"/>
    <path d="M12.673 42.5281L9.61244 45.8749L8.67697 45.0143L11.0527 42.4148L9.78189 41.2709L7.4132 43.8491L6.48126 42.9956L9.53125 39.6453L12.673 42.5281Z" fill="white"/>
    <path d="M12.1787 47.313C11.9409 46.9616 11.8035 46.5516 11.7814 46.1274C11.7594 45.7032 11.8534 45.2811 12.0535 44.9067C12.2535 44.5323 12.5518 44.2201 12.9162 44.0037C13.2805 43.7873 13.6969 43.6752 14.1203 43.6793C14.5685 43.6911 15.0079 43.8072 15.4037 44.0187C15.7995 44.2301 16.1408 44.531 16.4007 44.8976C16.6411 45.2466 16.7794 45.6561 16.8 46.0798C16.8206 46.5035 16.7226 46.9245 16.5172 47.2953C16.3235 47.6706 16.03 47.9848 15.6693 48.203C15.3085 48.4211 14.8945 48.5348 14.4733 48.5313C14.0256 48.519 13.5869 48.4026 13.1918 48.1912C12.7967 47.9797 12.4559 47.6791 12.1964 47.313H12.1787ZM14.2968 47.4015C14.512 47.3933 14.7208 47.3259 14.9004 47.2067C15.0958 47.0736 15.2548 46.8934 15.3629 46.6826C15.4776 46.4758 15.5372 46.2428 15.5358 46.0061C15.535 45.791 15.4751 45.5803 15.3629 45.397C15.2438 45.2146 15.0807 45.0654 14.8888 44.9632C14.6968 44.8611 14.4823 44.8093 14.265 44.8126C14.0507 44.8227 13.8432 44.8913 13.6649 45.011C13.4704 45.1392 13.3114 45.3146 13.2024 45.5209C13.0882 45.7281 13.0275 45.9607 13.0259 46.1974C13.0275 46.4129 13.0886 46.6238 13.2024 46.8065C13.3171 46.9923 13.4792 47.1439 13.6719 47.2457C13.863 47.3518 14.0785 47.4056 14.2968 47.4015Z" fill="white"/>
    <path d="M22.2007 46.4345L21.1417 50.8509L19.9168 50.5534L20.7428 47.1251L19.479 46.817L19.2813 47.5253C19.147 48.0393 18.9711 48.5416 18.7554 49.0269C18.6192 49.3511 18.3984 49.6325 18.1164 49.8415C17.9812 49.9269 17.8293 49.9822 17.6709 50.0035C17.5126 50.0249 17.3515 50.0119 17.1986 49.9654C17.0087 49.9144 16.8251 49.8419 16.6514 49.7494L16.9691 48.7471C17.021 48.773 17.0754 48.7932 17.1315 48.8073C17.2058 48.8283 17.2842 48.8296 17.3591 48.8109C17.434 48.7923 17.5028 48.7544 17.5587 48.7011C17.6997 48.5593 17.8092 48.3891 17.8799 48.2017C17.995 47.9103 18.0928 47.6123 18.1729 47.3092L18.6636 45.5632L22.2007 46.4345Z" fill="white"/>
    <path d="M23.0585 46.5481L24.3222 46.5269L24.3646 49.1973L26.1897 46.4985L27.3934 46.4773L27.4675 51.0212L26.2073 51.0424L26.1649 48.3827L24.3575 51.0743H23.1467L23.0585 46.5481Z" fill="white"/>
    <path d="M33.4192 49.6611L32.7415 47.3485L32.1696 49.5584L31.6224 49.7143L29.9739 48.2091L30.6269 50.4792L29.4973 50.8086L28.2406 46.4347L29.2537 46.1408L31.513 48.2162L32.2755 45.2625L33.2886 44.9685L34.563 49.3282L33.4192 49.6611Z" fill="white"/>
    <path d="M38.9686 45.7087L39.4734 46.5623L36.3599 48.4216L34.0512 44.5258L37.1082 42.709L37.613 43.5625L35.6468 44.7312L36.0351 45.39L37.7684 44.3629L38.2555 45.1881L36.5258 46.2187L36.9458 46.927L38.9686 45.7087Z" fill="white"/>
    <path d="M40.1653 40.2085C40.4568 40.0999 40.774 40.0814 41.076 40.1553C41.3044 40.2079 41.5184 40.3105 41.7028 40.4556C41.8871 40.6008 42.0373 40.785 42.1425 40.9951C42.2477 41.2051 42.3054 41.4359 42.3114 41.671C42.3174 41.906 42.2717 42.1394 42.1774 42.3547C42.0297 42.6921 41.8118 42.9939 41.5385 43.2401L40.949 43.7749L41.7609 44.639L40.8395 45.5209L37.7401 42.2059L39.2475 40.7893C39.5086 40.5323 39.8216 40.3342 40.1653 40.2085ZM41.1078 42.0182C41.1153 41.9274 41.1024 41.8359 41.0701 41.7507C41.0377 41.6655 40.9866 41.5887 40.9207 41.5259C40.8619 41.4547 40.788 41.3977 40.7042 41.3591C40.6205 41.3205 40.5292 41.3012 40.4371 41.3028C40.2247 41.3257 40.0278 41.4251 39.8829 41.5826L39.3639 42.0714L40.2712 43.0418L40.7901 42.553C40.959 42.4179 41.0722 42.2249 41.1078 42.0111V42.0182Z" fill="white"/>
    <path d="M5.9905 37.7683L6.37528 38.6785L7.35664 38.7635L6.61179 39.4081L6.83419 40.3714L5.9905 39.8614L5.14681 40.3714L5.36921 39.4081L4.62436 38.7635L5.60572 38.6785L5.9905 37.7683Z" fill="white"/>
    <path d="M44.0413 37.7683L44.426 38.6785L45.4074 38.7635L44.6625 39.4081L44.8849 40.3714L44.0413 39.8614L43.1976 40.3714L43.42 39.4081L42.6751 38.7635L43.66 38.6785L44.0413 37.7683Z" fill="white"/>
    <path d="M32.4485 28.238C32.4168 28.3442 32.3815 28.454 32.3462 28.5603L33.0204 31.6131C34.1327 30.0176 34.7415 28.1236 34.7678 26.1768L32.4485 28.238Z" fill="white"/>
    <path d="M29.4867 19.6672L32.6885 19.9753C31.5367 18.5085 29.991 17.4026 28.2336 16.7878L29.4867 19.6672Z" fill="white"/>
    <path d="M17.5516 28.3652L15.2677 26.3394C15.3225 28.1485 15.8801 29.9062 16.8774 31.4145L17.5516 28.3652Z" fill="white"/>
    <path d="M20.3686 19.667L21.5864 16.855C19.9197 17.4838 18.4552 18.5563 17.3503 19.9574L20.3686 19.667Z" fill="white"/>
    <path d="M25.0247 33.8018H24.8447L22.1618 35.3884C23.9859 35.9486 25.9337 35.9597 27.764 35.4203L25.0247 33.8018Z" fill="white"/>
    <path d="M14.1875 20.2654C15.0601 18.6175 16.2941 17.1899 17.7965 16.0899C19.2989 14.99 21.0305 14.2464 22.8609 13.9153L23.7893 11.769C21.1983 11.9942 18.718 12.9255 16.6163 14.4622C14.5146 15.999 12.8716 18.0828 11.8647 20.4885L14.1875 20.2654Z" fill="white"/>
    <path d="M26.9804 13.8836C28.8515 14.1914 30.6261 14.9293 32.1657 16.0395C33.7053 17.1497 34.968 18.6022 35.8551 20.2833L38.1778 20.5064C37.1602 18.0674 35.4892 15.9586 33.3502 14.414C31.2111 12.8693 28.6875 11.949 26.0591 11.7551L26.9804 13.8836Z" fill="white"/>
    <path d="M16.1854 34.5419C13.9904 32.2597 12.7619 29.2133 12.7577 26.042C12.7581 25.4423 12.8018 24.8434 12.8883 24.25L11.1515 22.7058C10.54 25.2535 10.6392 27.9209 11.438 30.4159C12.2369 32.9108 13.7046 35.1371 15.6806 36.851L16.1854 34.5419Z" fill="white"/>
    <path d="M30.4788 37.0208C28.7663 37.8793 26.8767 38.3222 24.9624 38.3135C23.0481 38.3049 21.1625 37.8451 19.4578 36.9712L17.4633 38.1505C19.7144 39.5601 22.3126 40.3118 24.9661 40.3212C27.6195 40.3306 30.223 39.5972 32.4838 38.2037L30.4788 37.0208Z" fill="white"/>
    <path d="M37.1222 24.0905C37.4253 26.0028 37.2734 27.9599 36.6789 29.8021C36.0844 31.6442 35.0642 33.3193 33.7016 34.6906L34.2029 36.9572C36.243 35.2328 37.7601 32.9689 38.5819 30.4228C39.4038 27.8767 39.4973 25.1503 38.852 22.5535L37.1222 24.0905Z" fill="white"/>
    <path d="M25.0177 7.19678C21.3065 7.19538 17.6783 8.29817 14.5919 10.3657C11.5055 12.4332 9.0996 15.3726 7.67844 18.812C6.25727 22.2515 5.88471 26.0365 6.60786 29.6884C7.33101 33.3403 9.1174 36.695 11.7411 39.3282C14.3648 41.9615 17.7079 43.755 21.3476 44.4818C24.9874 45.2087 28.7602 44.8364 32.189 43.4119C35.6178 41.9874 38.5485 39.5747 40.6104 36.479C42.6724 33.3833 43.773 29.7437 43.773 26.0204C43.773 21.0293 41.7972 16.2425 38.2801 12.7126C34.763 9.18269 29.9925 7.19866 25.0177 7.19678ZM25.0177 42.836C21.4426 42.8401 17.9611 41.6903 15.0875 39.5564C12.2558 37.4656 10.1522 34.5334 9.075 31.1756C7.99783 27.8178 8.00181 24.205 9.08639 20.8497L9.00167 20.7718H9.11463C10.2167 17.4329 12.3332 14.524 15.167 12.4534C18.0008 10.3827 21.4097 9.25417 24.9153 9.22612L24.94 9.16237L24.9682 9.22258H25.0318C29.4789 9.22258 33.7439 10.995 36.8885 14.1498C40.033 17.3047 41.7997 21.5836 41.7997 26.0452C41.7997 30.5068 40.033 34.7857 36.8885 37.9406C33.7439 41.0955 29.4789 42.8678 25.0318 42.8678L25.0177 42.836Z" fill="white"/>
</svg>
