<svg width="24" height="24" viewBox="0 0 24 24" fill="none" xmlns="http://www.w3.org/2000/svg">
<g id="Frame" clip-path="url(#clip0_105_3620)">
<g id="Group">
<path id="Layer 2" d="M12 0C5.37281 0 0 5.37281 0 12C0 18.6272 5.37281 24 12 24C18.6272 24 24 18.6272 24 12C24 5.37281 18.6272 0 12 0ZM6.83859 7.36828H17.1614C17.4958 7.36768 17.8193 7.48748 18.0727 7.70578L12.0192 11.3906L6.375 7.44656C6.524 7.39446 6.68075 7.368 6.83859 7.36828ZM18.5625 15.2306C18.5625 15.6022 18.4149 15.9586 18.1521 16.2213C17.8894 16.4841 17.533 16.6317 17.1614 16.6317H6.83859C6.467 16.6317 6.11063 16.4841 5.84787 16.2213C5.58511 15.9586 5.4375 15.6022 5.4375 15.2306V8.76937C5.43717 8.55247 5.48757 8.33848 5.58469 8.14453L11.7066 12.4219C11.7881 12.4789 11.8844 12.5109 11.9838 12.514C12.0832 12.517 12.1814 12.4911 12.2662 12.4392L18.5536 8.61469C18.5594 8.66652 18.5624 8.71863 18.5625 8.77078V15.2306Z" fill="white"/>
</g>
</g>
<defs>
<clipPath id="clip0_105_3620">
<rect width="24" height="24" fill="white"/>
</clipPath>
</defs>
</svg>
