<svg width="32" height="32" viewBox="0 0 32 32" fill="none" xmlns="http://www.w3.org/2000/svg">
<g id="Frame">
<path id="Vector" d="M20.1465 9.70605H12.1465V22.2927H20.1465V9.70605Z" fill="#F26122"/>
<path id="Vector_2" d="M29.0922 15.9997C29.0902 19.0604 27.3416 21.8517 24.5882 23.1896C21.8346 24.5276 18.5589 24.1775 16.1504 22.288C19.6197 19.557 20.2205 14.5326 17.4928 11.061C17.1018 10.5583 16.651 10.1051 16.1504 9.71136C18.5589 7.82186 21.8346 7.47181 24.5882 8.80971C27.3416 10.1476 29.0902 12.9389 29.0922 15.9997Z" fill="#F69E1E"/>
<path id="Vector_3" d="M13.1319 16C13.1192 13.5522 14.2313 11.2341 16.1487 9.7117C12.8681 7.1325 8.1557 7.50703 5.32399 10.572C2.49226 13.637 2.49226 18.363 5.32399 21.428C8.1557 24.493 12.8681 24.8675 16.1487 22.2883C14.2313 20.7659 13.1192 18.4478 13.1319 16Z" fill="#EA1D25"/>
</g>
</svg>
