<svg width="32" height="32" viewBox="0 0 32 32" fill="none" xmlns="http://www.w3.org/2000/svg">
<g id="Frame" clip-path="url(#clip0_105_3636)">
<path id="Vector" fill-rule="evenodd" clip-rule="evenodd" d="M0.000416541 11.2066C0.980173 11.2102 1.95992 11.2088 2.94094 11.2073C3.40261 11.2009 3.86427 11.4685 4.11666 11.906C4.3513 12.2807 4.44008 12.7338 4.55549 13.1649C4.91061 14.5101 5.26002 15.8568 5.61578 17.202C5.62149 17.3234 5.78192 17.3704 5.81299 17.2405C6.17637 15.8825 6.52642 14.5208 6.88661 13.1613C7.01027 12.6825 7.1168 12.1736 7.40534 11.7804C7.59051 11.5256 7.84987 11.3436 8.13144 11.2587C8.37114 11.1838 8.6229 11.2123 8.86894 11.2073C9.72885 11.2123 10.59 11.2002 11.4506 11.2145C11.4448 14.5929 11.4537 17.9714 11.4455 21.3498C10.5146 21.3434 9.58363 21.3591 8.6527 21.3412C8.6527 19.3594 8.65714 17.3776 8.6508 15.3958C8.64509 15.2195 8.38573 15.2345 8.36797 15.4008C7.81373 17.3804 7.25568 19.3594 6.70968 21.342C6.05206 21.3591 5.39382 21.3455 4.73622 21.3484C4.18261 19.3687 3.63344 17.3876 3.07475 15.4093C3.0513 15.2459 2.88008 15.2402 2.78749 15.3358C2.78939 17.3383 2.78494 19.3408 2.78939 21.3434C1.85973 21.3562 0.930709 21.344 0.00105069 21.3498C-0.000217605 17.9685 -0.000217604 14.5879 0.000416541 11.2066ZM12.7214 11.213C13.6504 11.1973 14.5801 11.2216 15.5091 11.2002C15.5237 13.2056 15.511 15.2116 15.5154 17.2178C15.5947 17.2976 15.7412 17.3226 15.79 17.19C16.409 15.7305 17.0246 14.2696 17.643 12.8095C17.8389 12.3563 17.9981 11.8646 18.3171 11.4985C18.4598 11.3465 18.6379 11.1988 18.8446 11.2095C19.7922 11.2102 20.7395 11.203 21.6875 11.213C21.6888 14.5901 21.6888 17.9671 21.6875 21.344C20.7579 21.3527 19.8283 21.3519 18.8979 21.3448C18.8973 19.3444 18.9018 17.3434 18.896 15.3429C18.8936 15.171 18.6354 15.1852 18.6088 15.3394C18.0261 16.7866 17.4451 18.2354 16.863 19.6826C16.6835 20.1216 16.5136 20.5748 16.2459 20.9573C16.097 21.1706 15.8794 21.362 15.6264 21.349C14.6581 21.3484 13.6897 21.3504 12.7214 21.3484C12.722 17.97 12.7239 14.5915 12.7214 11.213ZM23.0472 15.8418C25.9667 15.8197 28.8877 15.8418 31.8078 15.8311C31.7096 16.2836 31.4496 16.6732 31.1738 17.0128C30.6302 17.6765 29.8496 18.082 29.0469 18.1055C27.9802 18.1119 26.9136 18.1048 25.8462 18.109C25.84 19.1895 25.8462 20.27 25.8438 21.3504C24.9134 21.3455 23.9826 21.3533 23.0517 21.3455C23.0472 19.5114 23.056 17.6765 23.0472 15.8418Z" fill="#327351"/>
<path id="Vector_2" fill-rule="evenodd" clip-rule="evenodd" d="M22.6907 11.2117C24.8721 11.2089 27.0544 11.2067 29.2358 11.2089C29.8078 11.2545 30.3608 11.5165 30.8142 11.9083C31.4724 12.4849 31.9163 13.3705 31.9899 14.3083C32.007 14.6458 32.0006 14.9862 31.9563 15.3209C30.6195 15.3295 29.2827 15.3216 27.9459 15.3238C27.4875 15.3188 27.0257 15.3452 26.5697 15.2688C25.5432 15.1225 24.531 14.6416 23.8036 13.7973C23.1904 13.1065 22.8124 12.1744 22.6907 11.2117Z" fill="url(#paint0_linear_105_3636)"/>
</g>
<defs>
<linearGradient id="paint0_linear_105_3636" x1="22.691" y1="13.267" x2="31.9982" y2="13.267" gradientUnits="userSpaceOnUse">
<stop stop-color="#5B9FD7"/>
<stop offset="1" stop-color="#3C509E"/>
</linearGradient>
<clipPath id="clip0_105_3636">
<rect width="32" height="32" fill="white"/>
</clipPath>
</defs>
</svg>
