<svg width="15" height="18" viewBox="0 0 15 18" fill="none" xmlns="http://www.w3.org/2000/svg">
<path d="M3.1166 0.763611C3.41024 0.834482 3.69558 0.927903 3.9305 1.14567C3.96372 1.1766 3.9999 1.2043 4.03075 1.2378C4.70702 1.97164 5.38626 2.70226 6.05779 3.44126C6.55253 3.98568 6.63499 4.73498 6.2838 5.36058C6.13633 5.63237 5.90523 5.83887 5.63126 5.94366C5.21601 6.10602 4.89033 6.38048 4.71058 6.83148C4.59362 7.11927 4.57264 7.44232 4.65126 7.74508C4.84762 8.54592 5.24923 9.22049 5.73863 9.83965C6.35084 10.6128 7.05558 11.2667 7.9033 11.7203C8.19991 11.8795 8.50957 12.0257 8.84889 12.0109C9.49432 11.9832 9.97601 11.6572 10.1872 10.9833C10.4921 10.0014 11.7147 9.6032 12.4954 10.4369C13.1942 11.183 13.8853 11.9387 14.5753 12.6951C14.812 12.945 14.9536 13.2823 14.9721 13.6403C14.9721 13.6654 14.9686 13.6944 15 13.7047V13.898C14.985 14.2432 14.8721 14.5749 14.6767 14.8477C14.6308 14.9095 14.5814 14.9682 14.529 15.0236C14.1048 15.4842 13.6759 15.9404 13.2571 16.4075C12.8555 16.8546 12.3673 17.0415 11.799 17.0647C10.8825 17.102 10.0371 16.8185 9.21253 16.4262C8.11508 15.9043 7.11906 15.202 6.17346 14.4096C5.70601 14.0191 5.2605 13.599 4.82507 13.1654C4.47982 12.8214 4.14465 12.4658 3.82312 12.0972C2.76838 10.8821 1.82753 9.57549 1.08303 8.10845C0.667779 7.28828 0.321931 6.43718 0.127355 5.52165C-0.0108657 4.87028 -0.0583234 4.21182 0.0959141 3.5553C0.171211 3.2184 0.3324 2.91137 0.560999 2.6694C0.967949 2.23516 1.37371 1.79898 1.77117 1.35378C2.02685 1.06642 2.29795 0.819664 2.67761 0.763611H3.1166Z" fill="#DA3831"/>
</svg>
