<svg width="50" height="50" viewBox="0 0 50 50" fill="none" xmlns="http://www.w3.org/2000/svg">
<g id="Frame">
<g id="Group">
<path id="Vector" d="M9.79167 36.875C7.70833 34.5834 6.45833 32.0834 6.45833 27.9167C6.45833 20.625 11.6667 14.1667 18.9583 10.8334L20.8333 13.5417C13.9583 17.2917 12.5 22.0834 12.0833 25.2084C13.125 24.5834 14.5833 24.375 16.0417 24.5834C19.7917 25 22.7083 27.9167 22.7083 31.875C22.7083 33.75 21.875 35.625 20.625 37.0834C19.1667 38.5417 17.5 39.1667 15.4167 39.1667C13.125 39.1667 11.0417 38.125 9.79167 36.875ZM30.625 36.875C28.5417 34.5834 27.2917 32.0834 27.2917 27.9167C27.2917 20.625 32.5 14.1667 39.7917 10.8334L41.6667 13.5417C34.7917 17.2917 33.3333 22.0834 32.9167 25.2084C33.9583 24.5834 35.4167 24.375 36.875 24.5834C40.625 25 43.5417 27.9167 43.5417 31.875C43.5417 33.75 42.7083 35.625 41.4583 37.0834C40.2083 38.5417 38.3333 39.1667 36.25 39.1667C33.9583 39.1667 31.875 38.125 30.625 36.875Z" fill="#DA3831"/>
</g>
</g>
</svg>
