<svg width="70" height="70" viewBox="0 0 70 70" fill="none" xmlns="http://www.w3.org/2000/svg">
<g id="Frame">
<g id="Group">
<g id="Mask group">
<g id="Group_2">
<g id="Clip path group">
<g id="Group_3">
<path id="Vector" d="M62.6407 19.0542C62.6077 18.3097 62.5861 17.5648 62.5759 16.8196C62.5345 14.0203 60.3322 11.7358 57.537 11.5797C48.9882 11.1022 42.3024 8.25856 36.6551 2.75414C35.7101 1.88789 34.2927 1.88789 33.3477 2.75414C27.7004 8.25856 21.0146 11.1022 12.4658 11.5797C9.67057 11.7358 7.46831 14.0203 7.42675 16.8194C7.41667 17.5647 7.39511 18.3097 7.36207 19.0542C7.0479 35.5511 6.5769 58.1605 34.0161 67.7284C34.1475 67.7742 34.2819 67.8108 34.4184 67.838L34.4197 67.8382C34.8037 67.9149 35.1991 67.9149 35.5831 67.8382C35.7201 67.8109 35.856 67.774 35.9879 67.7279C63.3476 58.1599 62.9549 35.6293 62.6407 19.0542Z" stroke="#DA3831" stroke-width="2" stroke-miterlimit="10"/>
<path id="Vector_2" d="M50.3683 35.0002C50.3683 43.4879 43.4877 50.3685 35.0001 50.3685C26.5125 50.3685 19.6318 43.4879 19.6318 35.0002C19.6318 26.5124 26.5125 19.6318 35.0001 19.6318C43.4877 19.6318 50.3683 26.5124 50.3683 35.0002Z" stroke="#DA3831" stroke-width="2" stroke-miterlimit="10"/>
<path id="Vector_3" d="M41.4569 31.0419L31.916 40.5828" stroke="#DA3831" stroke-width="2" stroke-miterlimit="10" stroke-linecap="round"/>
<path id="Vector_4" d="M28.27 36.9369L31.916 40.5829" stroke="#DA3831" stroke-width="2" stroke-miterlimit="10" stroke-linecap="round"/>
</g>
</g>
</g>
</g>
</g>
</g>
</svg>
