<svg width="32" height="32" viewBox="0 0 32 32" fill="none" xmlns="http://www.w3.org/2000/svg">
<g id="Frame">
<path id="Vector" fill-rule="evenodd" clip-rule="evenodd" d="M20.4653 15.2427C21.5186 15.7942 22.8758 16.505 22.8691 18.1506L22.9232 18.0642C22.9123 20.1364 21.1315 21.4748 18.4226 21.4748C17.4408 21.4824 16.4664 21.3029 15.5518 20.9458L16.0158 18.7874C16.8243 19.2239 17.7307 19.4468 18.6493 19.4349C19.3939 19.4242 20.1926 19.122 20.1926 18.4528C20.2034 18.0212 19.8256 17.6866 18.8544 17.2117C17.883 16.7368 16.5987 15.9381 16.5987 14.5027C16.5987 12.5601 18.3686 11.2002 20.9157 11.2002C21.7414 11.2029 22.56 11.3528 23.3333 11.6427L22.88 13.8012C22.0869 13.4253 21.2064 13.2723 20.333 13.3587C19.599 13.4558 19.2536 13.8336 19.2536 14.1897C19.2536 14.6081 19.7986 14.8935 20.4653 15.2427ZM12.228 11.3407L8.04045 21.3237H5.2236L3.16222 13.3481C3.126 12.9685 2.89214 12.6361 2.54704 12.4739C1.7368 12.0873 0.881037 11.8045 0 11.6321L0.0647554 11.3407H4.45733C5.05178 11.3383 5.55976 11.7684 5.6553 12.3552L6.73454 18.1292L9.42189 11.3407H12.228ZM13.7066 21.3557L15.8651 11.3727H13.2748L11.1163 21.3557H13.7066ZM29.604 21.3884H32L29.9062 11.4053H27.7477C27.2728 11.4096 26.847 11.6991 26.6685 12.1392L22.7939 21.3884H25.5136L26.0426 19.8991H29.291L29.604 21.3884ZM26.7222 17.8488L28.0821 14.1038L28.8699 17.8488H26.7222Z" fill="white"/>
</g>
</svg>
