<svg width="24" height="24" viewBox="0 0 24 24" fill="none" xmlns="http://www.w3.org/2000/svg">
<g id="Frame" clip-path="url(#clip0_105_3612)">
<g id="Group">
<g id="Layer 2">
<g id="08.Whatsapp">
<path id="Vector" d="M14.368 12.6697C14.2894 12.587 14.1907 12.5261 14.0815 12.4929C13.9723 12.4597 13.8564 12.4554 13.7451 12.4803C13.6337 12.5053 13.5307 12.5587 13.4462 12.6354C13.3617 12.712 13.2984 12.8093 13.2627 12.9176C13.2062 13.0706 13.0963 13.1979 12.9531 13.276C12.81 13.3541 12.6435 13.3777 12.4843 13.3424C11.7753 13.1655 10.8201 12.2371 10.6432 11.5029C10.6 11.3432 10.6201 11.173 10.6992 11.0277C10.7783 10.8824 10.9104 10.7733 11.068 10.7229C11.1744 10.6871 11.2698 10.6247 11.3453 10.5416C11.4208 10.4586 11.4738 10.3576 11.4993 10.2483C11.5247 10.1389 11.5218 10.0249 11.4909 9.91703C11.4599 9.80915 11.4018 9.71098 11.3222 9.63185L10.3306 8.64027C10.2003 8.52054 10.0299 8.4541 9.85297 8.4541C9.67605 8.4541 9.50559 8.52054 9.37534 8.64027L8.7027 9.31606C8.03007 10.0234 8.77376 11.8992 10.4395 13.5634C12.1053 15.2276 13.978 16.0045 14.6853 15.3003L15.358 14.6276C15.4755 14.4979 15.5405 14.329 15.5405 14.154C15.5405 13.9789 15.4755 13.8101 15.358 13.6803L14.368 12.6697Z" fill="white"/>
<path id="Vector_2" d="M12 0C9.62663 0 7.30655 0.703788 5.33316 2.02236C3.35977 3.34094 1.8217 5.21509 0.913451 7.4078C0.00519938 9.60051 -0.232441 12.0133 0.230582 14.3411C0.693605 16.6689 1.83649 18.8071 3.51472 20.4853C5.19295 22.1635 7.33115 23.3064 9.65892 23.7694C11.9867 24.2324 14.3995 23.9948 16.5922 23.0866C18.7849 22.1783 20.6591 20.6402 21.9776 18.6668C23.2962 16.6935 24 14.3734 24 12C24 8.8174 22.7357 5.76516 20.4853 3.51472C18.2348 1.26428 15.1826 0 12 0ZM12 18.3158C10.7645 18.3181 9.55594 17.955 8.52632 17.2721L6.09948 18.0489L6.88895 15.7026C6.20698 14.7602 5.79853 13.6478 5.70865 12.488C5.61877 11.3282 5.85096 10.1661 6.37961 9.12983C6.90826 8.09361 7.71282 7.22351 8.70457 6.61552C9.69632 6.00752 10.8367 5.68523 12 5.68421C13.6751 5.68421 15.2815 6.34962 16.4659 7.53406C17.6504 8.7185 18.3158 10.3249 18.3158 12C18.3158 13.6751 17.6504 15.2815 16.4659 16.4659C15.2815 17.6504 13.6751 18.3158 12 18.3158Z" fill="white"/>
</g>
</g>
</g>
</g>
<defs>
<clipPath id="clip0_105_3612">
<rect width="24" height="24" fill="white"/>
</clipPath>
</defs>
</svg>
